<svg xmlns="http://www.w3.org/2000/svg" width="2000" height="2000" viewBox="0 0 2000 2000">
  <defs>
    <style>
      .cls-1 {
        fill: #fff;
        fill-rule: evenodd;
      }
    </style>
  </defs>
  <path id="Preenchimento_de_Cor_1" data-name="Preenchimento de Cor 1" class="cls-1" d="M1675,426c-0.34-32.831,27.62-36.019,61-35q21.495,26,43,52V556c0,28.64,4.74,47.774,9,69q0.495,76.992,1,154,3.495,86.991,7,174c7.5,46.933,10.1,95.89,18,138,4.31,22.96-2.2,54.06-4,71q4.005,14.505,8,29c5.09,29.54.24,79.27-4,106q1.995,18,4,36c-1.33.33-2.67,0.67-4,1,6.96,16.51,23.06,44.22,0,55,3.32,6.68,11.63,17.92,9,29-2.78,11.71-28.03,33.52-39,37H1591l-11,8h-37c-37.22,0-81.7,2.18-114-3q-16.005,4.005-32,8h-69c-61.56,0-127.73-2.61-181,6q-59.49,3.495-119,7c-19.08-5.48-49.923-33.71-37-66q13-13.5,26-27c-4.27-45.52-5.39-83.97,0-121-29.673-23.25-9.71-74.82-18-121-2.992-16.67-.014-25.92,0-44q-2-15-4-30,2-13.5,4-27l-9-24,9-36-4-8q2-22.5,4-45c-19.177-8.716-11.957-91.458-12-122q-6.5-135.486-13-271c-0.213-25.541-6.819-91.109,0-101,24.793-9.6,53.14-15.833,85-21l39-1,98-1c47.19-7.267,133.46-4.871,178,2,19.62,3.027,26.11-7.942,46-8h103c8.33,3.264,14.47,10.909,26,13h61q10.005,8.5,20,17C1641.47,427.927,1650.8,425.524,1675,426ZM521,462v-9l-51-4-40,4c-24.246-3.689-55.12-6.2-83-2l-71,6c-4.667-1.085-13.7-6.9-22-4-8.249,2.878-9.241,10.012-22,8l-4-3q0.5-8.5,1-17c15.734-31.778,138.461-20,189-20H518c7.544,1.409,14.62,5.7,26,4,62.366-9.344,130.174-9.153,189-18,10.8-1.624,10.614,5.3,21,4,37.352-4.675,86.966,2.311,128-4l43-4,22,27q4.5,120.487,9,241,7,306.469,14,613c0,43.73,8.643,138.16-10,163-7.208,9.6-20.863,15.43-35,18H911c-20.021,7.74-71.6,17.07-88-3v-1l14-9h56q15.5-13.995,31-28,5.5,2.505,11,5l12-6c-6.257-19.57-.234-25.36,4-42V1213c-3.188-8.3-11.851-10.9-13-23,9.785-12.69,9-33.06,9-56v-19c1.333-.67,2.667-1.33,4-2q-0.5-1.5-1-3c-2.578-10.52,1.719-14.07,1-21q-4.5-10.005-9-20,2.5-10.995,5-22c0.017-15.24-11.673-39.86-5-59,0.788-2.261,4.18-1.684,5-3,4.587-7.367-9.051-25.526-9-31q2-7.5,4-15-3.5-80.993-7-162c-4.961-29.646,8.655-51.8,5-69-3.165-14.889.83-36.436-2-54q-4.5-44-9-88c-2.57-15.172-3.28-41.3,4-50l-13-21c6.3-16.922,13.345-53.27-3-69-14.624.242-11.976,6.883-24,8-19.193-7.485-59.763-3.628-84,0-34.854,5.217-71.028-3.691-101-4-1.848,7.839-6.886,9.662-12,14l-15-1c-2.451-4.855-3.706-10.159-5-17h-9l-22,13c-11.788,2.368-29.658-8-42-4l-23,22c-9.266.614-12.481-.6-13-9,4.2-1.537,2.448.184,4-4l-9-5c-3.931,14.717-18.538,25.032-27,36v1a62.086,62.086,0,0,1,26,9c1.729,7.648,1.025,16.767-2,22l-10,1c-6.461-6.489-18.116-32.387-29-32-9.144.326-19,12.035-30,14-2.3-2-3.345-2.088-5-5C481.69,473.07,507.494,461.884,521,462Zm1206-49v13h17V413h-17ZM242,535H232c0.312-6.48,3.806-7.623,4-11,0.226-3.928-4.534-12.184-3-20l6-5,4,1C246.6,511.319,243.239,521.524,242,535Zm910,754q69.495,2.505,139,5c1.79-5.57,3.61-5.11,4-13-12.95-47.61-.9-117.43,5-160q-2.505-21.495-5-43c-0.4-24.53-5.07-81.246,4-97,25.57-11.544,70.3-1.791,111-2,11.51-.059,36.58-7.128,43-2,14.16,13.092,14.04,91.69,4,104,9.96,22.37,13.62,98.28,5,130,1.33,2.67,2.67,5.33,4,8v70c23.38,3.59,42.24-.3,66-4q33,4.005,66,8,7.995-4.005,16-8c-15.93-33.07,1.71-92.24-5-134q-1.995-12-4-24c1.81-9.24,8.24-16.97,9-30-2.67-1-5.33-2-8-3q-0.495-63.99-1-128,1.995-11,4-22c-8.88-64.438-4-145.945-4-217V674q-1.995-20-4-40,4.005-28.5,8-57c-1.11-4.6-3.6-8.908-4-16-28.86.443-31.1,16.643-55,1-19.8,19.778-52.18,4.734-89,4-2.02,8.13-5.89,6.31-13,9,17.09,44.04,8.99,137.788,9,206q1.995,37.5,4,75c-3.1,12.259-14.48,18.727-30,19-6.78-27.842-74.2,12.686-87-8-8.92,2.054-34.08,9.053-45,2-17.65-11.4-12-51.5-12-80V684q1.995-16.5,4-33c-2.35-16.363-12.92-46-8-65,1.06-4.088,3.49-6.363,4-13-3.59-7.543-7.19-11.6-15-15-26.47,3.809-57.46,10.68-90,12-4.9-14.775-33.58-16.294-42-3-6.03,10.082-2,94.286-2,114,0,100.3,4.43,178.308,6,276,0.4,24.736,9.8,97.24-1,113,3.59,3.19,5.89,2.91,8,8,6.97,15.69-5.61,29.51-12,36q6.495,10.995,13,22v153ZM228,572l9,1v3l-1,1h-8v-5Zm406,27c62.941,17.417,99.063,26.822,144,60h9c8.6-11.655,18.776-19.856,31-28,14.458,4.679,39.846,10.207,46,23q0.5,25,1,50c7.537,52.684,9.371,127.274-46,129-2.246,14.562-15.152,32.6-27,37-14.167,5.268-58.373-1.732-65-6-33.583-21.628-9.051-50.9-19-93-5.531-23.406-39.7-42.629-63-48-22.235-5.126-40.17,14.57-51,23-38.842,30.233-59.764,89.748-50,156-6.923,2.881-9.066,8.342-14,13,7.857,29.062-5.855,68.116,0,106,15.09,97.64-4.459,207.58,75,240,12.225,4.99,32.207,10.27,52,7,17.549-2.9,34.094-7.15,47-15,23.868-14.52,27.714-38.17,45-59-14.342-29.92-6.141-64.29,19-77,25.393,10.79,98.051,37.79,111,56,4.4,6.19,4.25,16.02,4,27-20.717,16.22-17.772,48.94-32,72-30.5,49.43-72.616,89.46-130,112-53.316,20.94-133.172,20.87-185-1-13.664-5.77-25.683-18.13-38-23-16.594-6.56-25.093-6.58-37-16-40.256-31.85-75.347-106.77-92-163-10.4-35.12-33.5-87.07-27-119q-2.5-48.99-5-98c6.34-38.893,15.45-72.674,23-106V805l16-20a497.061,497.061,0,0,0,44-98c36.815-5.827,51.334-43.624,80-57l50-15,16-1c6.8-3.46,10.265-9.74,21-12ZM236,636h10v14H236V636Zm6,37,7,1,6,5q-0.5,8-1,16l-4,5h-4C242.556,693,241.775,684.679,242,673ZM1514,792c0.3,7.84-.49,12.659-3,17h-11c-3.06-2.708-3.69-4.269-4-10C1500.68,793.164,1502.57,791.513,1514,792ZM1252,923h9v5h-9v-5Zm-61,91c7.31,3.35,12.86,6.62,18,12-0.33,2.67-.67,5.33-1,8-2.78,6.08-8.07,9.11-14,12-9.63-1.71-10.56-6.6-16-12,0.33-3,.67-6,1-9C1181.72,1019.22,1186.33,1017.68,1191,1014ZM266,1172c9.2,3,9.515,17.91,5,26-2.333.67-4.667,1.33-7,2-4-7.61-5.689-14.02-3-24C262.666,1174.67,264.334,1173.33,266,1172Zm246,50c-0.333-2.67-.667-5.33-1-8-8.342-9.24-15.046-11.37-27-5q2.5,6.495,5,13h23ZM275,1438c14.689,0.53,15.364,10.73,25,14,10.959,3.72,25.2-7.11,35-3,4.247,9.83,21.272,23.12,20,33-6.7,19.84-79.461-19.78-86-27q0.5-6,1-12C271.666,1441.33,273.334,1439.67,275,1438Zm315,36c0.078-11.01,4.078-14.24,9-20,29.723-7.15,58.146,13.93,76,11,31.567-5.19,65.975-13.06,107-13q4.5,6.495,9,13l-2,3c-13.9,5.46-29.572,3.96-50,7C683.472,1483.27,646.362,1474.52,590,1474Zm-188,10c-0.261-7.34.472-10.44,5-13,11.849-5.29,112.085-1.88,115-1,8.212,2.47,27.514-8.41,31-3,2.574,2.99,5,7.35,3,12-0.667,1.33-1.333,2.67-2,4-17.752,3.2-46.753,1.52-60-3q-10.5,1.995-21,4H402Zm170-10c5.455-.27,10.235-0.19,13,2-2,4.46-2.955,5.64-7,8h-3Q573.5,1479.005,572,1474Z"/>
</svg>
